<svg xmlns="http://www.w3.org/2000/svg" width="256" height="256" viewBox="0 0 256 256" role="img" aria-label="Jules-bot mark">
  <defs>
    <linearGradient id="g" x1="0" y1="0" x2="1" y2="1">
      <stop offset="0" stop-color="#0f1113"/>
      <stop offset="1" stop-color="#1b2126"/>
    </linearGradient>
  </defs>
  <rect width="256" height="256" rx="56" fill="url(#g)"/>
  <g transform="scale(1.6000)">
    <path d="M32 36 H128 a14 14 0 0 1 14 14 V96 a14 14 0 0 1 -14 14 H74 L52 130 V110 H32 a14 14 0 0 1 -14 -14 V50 a14 14 0 0 1 14 -14 Z"
          fill="#2BD9FF" opacity="0.10"/>
    <path d="M32 36 H128 a14 14 0 0 1 14 14 V96 a14 14 0 0 1 -14 14 H74 L52 130 V110 H32 a14 14 0 0 1 -14 -14 V50 a14 14 0 0 1 14 -14 Z"
          fill="none" stroke="#2BD9FF" stroke-width="6" stroke-linejoin="round"/>
    <path d="M44 58 L62 73 L44 88" fill="none" stroke="#2BD9FF" stroke-width="8" stroke-linecap="round" stroke-linejoin="round"/>
    <path d="M74 88 H112" stroke="#FFB74D" stroke-width="8" stroke-linecap="round"/>
  </g>
</svg>
